<svg width="15" height="15" viewBox="0 0 15 15" fill="none" xmlns="http://www.w3.org/2000/svg">
<path d="M9.31258 13.7709H5.81258C2.64508 13.7709 1.29175 12.4176 1.29175 9.25008V5.75008C1.29175 2.58258 2.64508 1.22925 5.81258 1.22925H6.97925C7.21841 1.22925 7.41675 1.42758 7.41675 1.66675C7.41675 1.90591 7.21841 2.10425 6.97925 2.10425H5.81258C3.12341 2.10425 2.16675 3.06091 2.16675 5.75008V9.25008C2.16675 11.9392 3.12341 12.8959 5.81258 12.8959H9.31258C12.0018 12.8959 12.9585 11.9392 12.9585 9.25008V8.08341C12.9585 7.84425 13.1568 7.64591 13.396 7.64591C13.6351 7.64591 13.8335 7.84425 13.8335 8.08341V9.25008C13.8335 12.4176 12.4801 13.7709 9.31258 13.7709Z" fill="white"/>
<path d="M5.5209 10.8191C5.16507 10.8191 4.8384 10.6907 4.59923 10.4574C4.3134 10.1716 4.1909 9.75741 4.25507 9.31991L4.5059 7.56408C4.55257 7.22574 4.77423 6.78824 5.0134 6.54908L9.61007 1.95241C10.7709 0.791579 11.9493 0.791579 13.1101 1.95241C13.7459 2.58825 14.0318 3.23575 13.9734 3.88325C13.9209 4.40825 13.6409 4.92158 13.1101 5.44658L8.5134 10.0432C8.27423 10.2824 7.83673 10.5041 7.4984 10.5507L5.74257 10.8016C5.66673 10.8191 5.5909 10.8191 5.5209 10.8191ZM10.2284 2.57075L5.63173 7.16741C5.5209 7.27824 5.39257 7.53491 5.36923 7.68658L5.1184 9.44241C5.09507 9.61158 5.13007 9.75158 5.21757 9.83908C5.30507 9.92658 5.44507 9.96158 5.61423 9.93824L7.37007 9.68741C7.52173 9.66408 7.78423 9.53574 7.88923 9.42491L12.4859 4.82825C12.8651 4.44908 13.0634 4.11075 13.0926 3.79575C13.1276 3.41658 12.9293 3.01408 12.4859 2.56491C11.5526 1.63158 10.9109 1.89408 10.2284 2.57075Z" fill="white"/>
<path d="M12.1417 6.23416C12.1008 6.23416 12.06 6.22833 12.025 6.21666C10.4908 5.785 9.27166 4.56583 8.83999 3.03166C8.77583 2.79833 8.90999 2.55916 9.14333 2.48916C9.37666 2.425 9.61583 2.55916 9.67999 2.7925C10.03 4.035 11.0158 5.02083 12.2583 5.37083C12.4917 5.435 12.6258 5.68 12.5617 5.91333C12.5092 6.11166 12.3342 6.23416 12.1417 6.23416Z" fill="white"/>
</svg>
