<svg width="15" height="15" viewBox="0 0 15 15" fill="none" xmlns="http://www.w3.org/2000/svg">
<path d="M12.8125 4.42578C12.8008 4.42578 12.7833 4.42578 12.7658 4.42578C9.68001 4.11661 6.60001 3.99995 3.54918 4.30911L2.35918 4.42578C2.11418 4.44911 1.89835 4.27411 1.87501 4.02911C1.85168 3.78411 2.02668 3.57411 2.26585 3.55078L3.45585 3.43411C6.55918 3.11911 9.70334 3.24161 12.8533 3.55078C13.0925 3.57411 13.2675 3.78995 13.2442 4.02911C13.2267 4.25661 13.0342 4.42578 12.8125 4.42578Z" fill="white"/>
<path d="M5.52082 3.83675C5.49749 3.83675 5.47415 3.83675 5.44499 3.83091C5.21165 3.79008 5.04832 3.56258 5.08915 3.32925L5.21749 2.56508C5.31082 2.00508 5.43915 1.22925 6.79832 1.22925H8.32665C9.69165 1.22925 9.81998 2.03425 9.90749 2.57091L10.0358 3.32925C10.0767 3.56841 9.91332 3.79591 9.67998 3.83091C9.44082 3.87175 9.21332 3.70841 9.17832 3.47508L9.04998 2.71675C8.96832 2.20925 8.95082 2.11008 8.33248 2.11008H6.80415C6.18582 2.11008 6.17415 2.19175 6.08665 2.71091L5.95248 3.46925C5.91748 3.68508 5.73082 3.83675 5.52082 3.83675Z" fill="white"/>
<path d="M9.43502 13.7708H5.69002C3.65419 13.7708 3.57252 12.6449 3.50836 11.7349L3.12919 5.86075C3.11169 5.62159 3.29836 5.41159 3.53752 5.39409C3.78252 5.38242 3.98669 5.56326 4.00419 5.80242L4.38336 11.6766C4.44752 12.5633 4.47086 12.8958 5.69002 12.8958H9.43502C10.66 12.8958 10.6834 12.5633 10.7417 11.6766L11.1209 5.80242C11.1384 5.56326 11.3484 5.38242 11.5875 5.39409C11.8267 5.41159 12.0134 5.61576 11.9959 5.86075L11.6167 11.7349C11.5525 12.6449 11.4709 13.7708 9.43502 13.7708Z" fill="white"/>
<path d="M8.53088 10.5625H6.58838C6.34921 10.5625 6.15088 10.3642 6.15088 10.125C6.15088 9.88583 6.34921 9.6875 6.58838 9.6875H8.53088C8.77004 9.6875 8.96838 9.88583 8.96838 10.125C8.96838 10.3642 8.77004 10.5625 8.53088 10.5625Z" fill="white"/>
<path d="M9.02091 8.22925H6.10425C5.86508 8.22925 5.66675 8.03091 5.66675 7.79175C5.66675 7.55258 5.86508 7.35425 6.10425 7.35425H9.02091C9.26008 7.35425 9.45841 7.55258 9.45841 7.79175C9.45841 8.03091 9.26008 8.22925 9.02091 8.22925Z" fill="white"/>
</svg>
